<svg xmlns="http://www.w3.org/2000/svg" width="480" height="480" viewBox="0 0 480 480" fill="none">
  <defs>
    <linearGradient id="bg" x1="60" y1="40" x2="420" y2="432" gradientUnits="userSpaceOnUse">
      <stop stop-color="#111A29"/>
      <stop offset="1" stop-color="#0A1120"/>
    </linearGradient>
  </defs>
  <rect width="480" height="480" rx="40" fill="url(#bg)"/>
  <circle cx="374" cy="96" r="72" fill="#04BE81" opacity=".12"/>
  <circle cx="110" cy="356" r="86" fill="#6D3AE8" opacity=".08"/>
  <rect x="38" y="38" width="404" height="404" rx="28" stroke="#D7F7EE" opacity=".12"/>
  <circle cx="224" cy="154" r="24" fill="#D7F7EE"/>
  <path d="M224 180L208 238L254 266" stroke="#D7F7EE" stroke-width="12" stroke-linecap="round" stroke-linejoin="round"/>
  <path d="M208 214L176 188" stroke="#D7F7EE" stroke-width="12" stroke-linecap="round"/>
  <path d="M254 220L312 178" stroke="#D7F7EE" stroke-width="12" stroke-linecap="round"/>
  <path d="M208 238L176 306" stroke="#D7F7EE" stroke-width="12" stroke-linecap="round"/>
  <path d="M254 266L304 314" stroke="#D7F7EE" stroke-width="12" stroke-linecap="round"/>
  <rect x="310" y="150" width="72" height="22" rx="11" fill="#04BE81"/>
  <path d="M320 278H394" stroke="#6D3AE8" stroke-width="10" stroke-linecap="round"/>
  <path d="M342 278L322 316" stroke="#6D3AE8" stroke-width="10" stroke-linecap="round"/>
  <path d="M376 278L396 316" stroke="#6D3AE8" stroke-width="10" stroke-linecap="round"/>
  <rect x="56" y="58" width="118" height="32" rx="16" fill="#04BE81"/>
  <text x="115" y="79" fill="#EEEEE3" font-family="Arial, sans-serif" font-size="14" font-weight="700" text-anchor="middle">EMPATHY</text>
  <text x="56" y="404" fill="#EEEEE3" font-family="Arial, sans-serif" font-size="28" font-weight="700">ENGINE / ERG</text>
  <text x="56" y="432" fill="#97A6B4" font-family="Arial, sans-serif" font-size="14">MASTER VISUAL · SKI ERG / ROW / ENGINE WORK</text>
</svg>
