<svg xmlns="http://www.w3.org/2000/svg" width="480" height="480" viewBox="0 0 480 480" fill="none">
  <defs>
    <linearGradient id="bg" x1="52" y1="44" x2="428" y2="430" gradientUnits="userSpaceOnUse">
      <stop stop-color="#131C2E"/>
      <stop offset="1" stop-color="#0A1020"/>
    </linearGradient>
  </defs>
  <rect width="480" height="480" rx="40" fill="url(#bg)"/>
  <circle cx="376" cy="90" r="76" fill="#6D3AE8" opacity=".16"/>
  <circle cx="100" cy="364" r="90" fill="#04BE81" opacity=".10"/>
  <rect x="38" y="38" width="404" height="404" rx="28" stroke="#D7F7EE" opacity=".12"/>
  <circle cx="238" cy="148" r="24" fill="#D7F7EE"/>
  <path d="M238 176L222 248L280 272" stroke="#D7F7EE" stroke-width="12" stroke-linecap="round" stroke-linejoin="round"/>
  <path d="M224 208L182 178" stroke="#D7F7EE" stroke-width="12" stroke-linecap="round"/>
  <path d="M280 212L346 184" stroke="#D7F7EE" stroke-width="12" stroke-linecap="round"/>
  <path d="M222 248L188 330" stroke="#D7F7EE" stroke-width="12" stroke-linecap="round"/>
  <path d="M280 272L330 332" stroke="#D7F7EE" stroke-width="12" stroke-linecap="round"/>
  <circle cx="360" cy="170" r="24" fill="#04BE81" opacity=".92"/>
  <path d="M344 186L376 154" stroke="#EEEEE3" stroke-width="6" stroke-linecap="round"/>
  <rect x="56" y="58" width="118" height="32" rx="16" fill="#6D3AE8"/>
  <text x="115" y="79" fill="#EEEEE3" font-family="Arial, sans-serif" font-size="14" font-weight="700" text-anchor="middle">EMPATHY</text>
  <text x="56" y="404" fill="#EEEEE3" font-family="Arial, sans-serif" font-size="28" font-weight="700">MIXED MODAL</text>
  <text x="56" y="432" fill="#97A6B4" font-family="Arial, sans-serif" font-size="14">MASTER VISUAL · CROSSFIT / POWER / CONDITIONING</text>
</svg>
