<svg xmlns="http://www.w3.org/2000/svg" width="480" height="480" viewBox="0 0 480 480" fill="none">
  <defs>
    <linearGradient id="bg" x1="58" y1="40" x2="422" y2="430" gradientUnits="userSpaceOnUse">
      <stop stop-color="#101B2C"/>
      <stop offset="1" stop-color="#08101E"/>
    </linearGradient>
  </defs>
  <rect width="480" height="480" rx="40" fill="url(#bg)"/>
  <circle cx="374" cy="92" r="72" fill="#04BE81" opacity=".12"/>
  <circle cx="110" cy="362" r="84" fill="#6D3AE8" opacity=".08"/>
  <rect x="38" y="38" width="404" height="404" rx="28" stroke="#D7F7EE" opacity=".12"/>
  <rect x="316" y="96" width="12" height="180" rx="6" fill="#6D3AE8"/>
  <path d="M180 102H368" stroke="#D7F7EE" stroke-width="10" stroke-linecap="round"/>
  <circle cx="228" cy="160" r="24" fill="#D7F7EE"/>
  <path d="M228 186V262" stroke="#D7F7EE" stroke-width="12" stroke-linecap="round"/>
  <path d="M228 216L188 176" stroke="#D7F7EE" stroke-width="12" stroke-linecap="round"/>
  <path d="M228 216L316 146" stroke="#D7F7EE" stroke-width="12" stroke-linecap="round"/>
  <path d="M228 262L198 332" stroke="#D7F7EE" stroke-width="12" stroke-linecap="round"/>
  <path d="M228 262L266 330" stroke="#D7F7EE" stroke-width="12" stroke-linecap="round"/>
  <rect x="56" y="58" width="118" height="32" rx="16" fill="#6D3AE8"/>
  <text x="115" y="79" fill="#EEEEE3" font-family="Arial, sans-serif" font-size="14" font-weight="700" text-anchor="middle">EMPATHY</text>
  <text x="56" y="404" fill="#EEEEE3" font-family="Arial, sans-serif" font-size="28" font-weight="700">UPPER PULL / ROW</text>
  <text x="56" y="432" fill="#97A6B4" font-family="Arial, sans-serif" font-size="14">MASTER VISUAL · BLOCK 1 · BACK / LATS / BICEPS</text>
</svg>
